<?xml version="1.0" standalone="no"?>
<!DOCTYPE svg PUBLIC "-//W3C//DTD SVG 20010904//EN"
 "http://www.w3.org/TR/2001/REC-SVG-20010904/DTD/svg10.dtd">
<svg version="1.0" xmlns="http://www.w3.org/2000/svg"
 width="640.000000pt" height="1280.000000pt" viewBox="0 0 640.000000 1280.000000"
 preserveAspectRatio="xMidYMid meet">
<g transform="translate(0.000000,1280.000000) scale(0.100000,-0.100000)"
fill="#000000" stroke="none">
<path d="M3912 12773 c-6 -17 -13 -178 -16 -388 -17 -1127 -27 -1666 -32
-1712 -5 -47 -8 -52 -35 -58 -16 -4 -33 -14 -38 -22 -15 -28 -55 -6 -120 67
-92 103 -99 97 -83 -65 6 -62 14 -81 62 -158 46 -72 59 -87 80 -87 15 0 32 6
39 13 10 10 18 5 41 -23 35 -41 41 -103 13 -119 -13 -7 -18 -23 -18 -63 0 -53
0 -53 -35 -58 -35 -5 -35 -5 -40 -64 l-5 -59 -70 -15 c-38 -7 -104 -31 -145
-52 -70 -36 -82 -39 -190 -45 -490 -25 -797 -52 -1040 -91 -103 -16 -291 -68
-335 -92 -44 -24 -50 -31 -47 -57 1 -17 3 -49 5 -73 1 -30 8 -48 22 -59 136
-104 648 -191 1370 -233 136 -7 178 -13 210 -29 94 -47 663 -50 751 -4 34 17
67 21 248 27 563 18 1083 89 1276 173 93 41 120 81 85 127 -13 17 -12 23 3 48
17 29 17 30 -15 58 -106 95 -672 175 -1438 203 -75 3 -85 6 -161 50 -62 37
-95 50 -137 54 l-56 6 -3 61 -3 61 -35 5 -35 5 0 54 c0 34 -5 56 -12 58 -7 3
-15 20 -19 39 -5 27 -1 43 20 74 24 37 26 47 26 159 l0 119 -30 7 -30 7 0 96
c0 53 5 537 12 1074 10 803 9 979 -1 992 -19 22 -27 20 -39 -11z m-122 -2273
c0 -11 -4 -20 -10 -20 -5 0 -10 9 -10 20 0 11 5 20 10 20 6 0 10 -9 10 -20z"/>
<path d="M3587 9165 c-19 -18 -24 -107 -8 -147 5 -13 35 -38 70 -58 69 -38 68
-37 74 -162 2 -64 8 -92 20 -106 16 -17 16 -55 9 -480 -4 -296 -11 -462 -17
-462 -5 0 -12 30 -15 67 l-5 68 -14 -45 c-7 -25 -22 -71 -32 -103 -18 -55 -19
-70 -9 -225 12 -197 24 -269 47 -294 15 -17 16 -102 10 -1154 l-7 -1136 -37
-34 c-36 -34 -38 -34 -130 -34 l-93 0 0 -28 c0 -24 -28 -57 -152 -184 -285
-290 -952 -942 -1113 -1087 -88 -79 -506 -488 -928 -907 -697 -692 -769 -766
-774 -801 -3 -21 -16 -50 -29 -66 -67 -80 -228 -378 -240 -445 -11 -57 7 -65
145 -70 66 -3 144 -1 174 2 l54 7 58 215 c57 212 58 215 41 247 -37 69 -40 66
634 744 693 697 907 903 940 903 19 0 1058 -200 1128 -217 12 -3 22 -11 22
-18 0 -23 19 -28 129 -34 104 -6 106 -6 106 -30 0 -22 -7 -26 -67 -41 -78 -19
-132 -53 -182 -113 -77 -94 -88 -152 -102 -550 -7 -210 -12 -237 -47 -237 -62
0 -226 -37 -329 -73 -92 -33 -148 -47 -209 -51 -46 -4 -96 -9 -111 -12 -37 -7
-78 -70 -78 -121 0 -37 3 -41 38 -55 32 -12 40 -13 50 -1 10 10 68 13 268 13
230 0 258 2 278 18 19 15 21 20 10 30 -23 21 -16 40 19 50 88 27 98 21 90 -50
-4 -34 -10 -48 -21 -48 -13 0 -13 -2 1 -18 12 -13 17 -36 17 -73 0 -68 -10
-85 -38 -70 -52 28 -102 0 -68 -38 12 -13 16 -38 16 -104 0 -47 -4 -88 -8 -91
-5 -3 -84 44 -175 104 -92 60 -167 107 -167 105 0 -2 71 -52 158 -111 224
-153 220 -147 177 -210 -31 -46 -27 -64 29 -123 78 -82 93 -85 406 -89 235 -3
298 -1 431 17 224 30 317 62 320 109 1 9 0 205 -1 435 -1 297 1 417 9 417 6 0
11 -2 11 -3 0 -11 229 -840 272 -986 l52 -175 118 -133 c112 -127 118 -136
118 -177 0 -38 -3 -45 -23 -50 -22 -5 -25 -13 -35 -118 -31 -309 -29 -351 23
-402 62 -63 213 -84 308 -43 34 15 37 19 37 57 0 46 -36 221 -82 393 -27 103
-33 117 -52 117 -26 0 -37 8 -53 37 -21 36 -16 64 38 230 l50 157 -232 821
-232 821 -99 109 c-55 61 -104 118 -110 129 -13 25 -78 270 -78 296 0 11 20
61 45 110 l45 90 170 85 c93 47 179 85 190 85 14 0 22 -10 29 -37 5 -21 16
-64 24 -95 13 -50 64 -125 397 -584 265 -365 401 -544 445 -586 74 -69 89
-107 56 -142 -19 -20 -20 -29 -14 -181 3 -88 9 -169 13 -180 5 -13 33 -30 81
-48 77 -29 124 -30 209 -5 42 12 100 54 100 71 0 7 -27 98 -61 202 -54 167
-65 193 -98 225 -20 19 -47 47 -60 62 l-24 27 23 55 22 56 -346 492 -346 493
-124 98 c-105 83 -133 111 -185 187 -34 50 -69 90 -77 90 -11 0 -14 18 -14 88
l0 89 -235 312 c-128 172 -235 316 -237 320 -2 4 -52 47 -113 95 -111 89 -195
176 -195 202 0 9 -12 14 -37 14 -26 1 -47 9 -65 25 l-28 24 0 1136 c0 963 2
1139 14 1158 19 29 36 148 45 316 8 148 3 171 -45 193 l-24 11 0 471 c0 459 1
472 20 489 17 14 20 29 20 101 0 61 4 87 15 96 8 6 19 9 25 5 13 -8 13 -71 -1
-110 -22 -61 7 -102 62 -88 19 5 20 11 15 54 -20 162 -20 148 8 155 30 7 35
27 39 159 l2 90 -255 0 c-140 0 -269 4 -286 9 -23 6 -35 4 -47 -9z m-3 -4486
c19 -9 29 -9 39 -1 17 15 27 6 27 -24 0 -15 11 -29 30 -41 l30 -17 0 -627 c0
-345 -3 -634 -6 -643 -5 -13 -25 -16 -118 -16 -98 0 -175 12 -645 100 -294 54
-539 104 -544 109 -7 7 -3 21 14 44 22 31 344 344 494 480 35 32 132 132 214
222 83 90 187 199 232 242 46 43 105 102 132 131 53 55 61 59 101 41z m697
-183 c82 -61 95 -76 273 -322 102 -143 186 -262 186 -266 0 -15 -26 -7 -66 20
-27 18 -118 125 -264 312 -122 156 -226 292 -231 302 -18 34 14 19 102 -46z
m-91 -206 c4 -19 48 -201 96 -404 60 -255 84 -374 77 -384 -5 -8 -62 -40 -126
-70 -108 -51 -119 -54 -134 -39 -9 9 -40 109 -69 224 l-54 208 0 341 c0 187 3
344 8 348 13 14 192 -185 202 -224z m240 -290 c56 -77 111 -145 123 -152 49
-25 197 -141 197 -154 0 -13 -260 -144 -286 -144 -7 0 -18 17 -23 38 -61 228
-139 547 -135 554 9 14 19 2 124 -142z m-415 -605 c17 -60 14 -75 -16 -75 -17
0 -19 7 -19 65 0 36 4 65 9 65 5 0 17 -25 26 -55z m1137 -71 c75 -59 98 -87
236 -282 376 -532 494 -703 488 -709 -6 -7 -64 32 -124 82 -40 35 -681 922
-689 956 -3 11 -3 19 0 19 3 0 43 -30 89 -66z m-772 -7 c0 -18 -31 -110 -40
-121 -12 -13 -83 62 -76 80 6 15 80 53 104 54 6 0 12 -6 12 -13z m-167 -115
c15 -15 30 -42 33 -60 6 -30 5 -32 -22 -32 -26 0 -56 6 -141 25 -32 7 -29 21
7 34 17 6 34 21 40 35 13 35 49 34 83 -2z m-73 -212 c80 -63 83 -72 92 -274
10 -240 27 -1256 21 -1273 -7 -17 -67 -17 -82 1 -8 9 -9 54 -5 147 4 107 9
135 22 145 14 10 14 14 3 28 -17 21 -55 20 -76 -1 -16 -15 -16 -18 -1 -28 13
-10 16 -35 16 -153 l0 -140 -31 -26 c-35 -30 -49 -32 -88 -11 -27 13 -29 13
-24 -4 4 -14 -3 -20 -29 -25 -59 -10 -491 -37 -553 -34 l-60 3 3 200 c3 150 7
202 17 209 11 8 11 13 0 30 -11 16 -13 44 -8 114 l6 92 36 10 c20 5 79 18 131
30 89 19 96 19 108 3 6 -9 12 -34 12 -55 0 -36 1 -38 33 -38 19 0 37 3 41 8 5
4 40 7 80 7 l71 0 7 69 c7 73 11 82 43 88 16 2 21 12 23 50 3 44 1 47 -25 52
-39 9 -72 69 -55 97 16 25 16 201 1 216 -7 7 -25 9 -40 6 -16 -3 -35 0 -43 6
-12 10 -17 8 -25 -8 -14 -26 -14 -196 0 -222 7 -14 7 -30 -1 -54 -9 -27 -19
-37 -48 -45 -63 -18 -331 -55 -339 -46 -9 8 -6 218 6 491 9 195 13 208 92 279
50 45 109 70 152 64 19 -3 22 -11 25 -50 3 -46 4 -48 45 -59 57 -16 193 -14
242 2 40 14 40 15 43 69 2 30 9 58 15 63 25 17 107 -1 147 -33z m358 -251 c47
-50 93 -101 103 -113 10 -12 117 -387 243 -846 l226 -824 -25 -91 c-43 -153
-28 -151 -158 -22 l-114 112 -37 113 c-72 222 -331 1146 -392 1397 -13 55 -24
120 -24 145 0 58 57 220 78 220 8 0 53 -41 100 -91z m-640 -316 c-3 -37 -4
-38 -45 -41 -34 -3 -42 0 -48 17 -13 42 3 61 51 61 l45 0 -3 -37z m-19 -126
c14 -18 4 -27 -31 -27 -43 0 -35 36 8 39 6 1 17 -5 23 -12z m-581 -702 c5 -86
-7 -187 -21 -182 -15 4 -26 123 -19 195 4 42 8 52 21 50 12 -2 17 -18 19 -63z"/>
<path d="M3772 2827 c-20 -21 -22 -34 -22 -121 0 -106 11 -146 36 -125 8 6 27
9 44 6 41 -9 50 13 50 115 0 65 -4 90 -20 116 -24 39 -57 42 -88 9z m86 -130
l3 -38 -48 3 c-42 3 -48 6 -51 26 -6 43 4 53 50 50 42 -3 43 -4 46 -41z"/>
</g>
</svg>
